# xmcd
#
# Track frame offsets:
#	150
#	14325
#	28752
#	43972
#	56297
#	70052
#	84080
#	97250
#	110782
#	123620
#	135335
#	148335
#	161995
#	179145
#	201515
#	215667
#
# Disc length: 3062 seconds
#
# Revision: 2
# Processed by: cddbd v1.5.2PL0 Copyright (c) Steve Scherf et al.
# Submitted via: audiograbber 1.83.01
#
DISCID=fe0bf410
DTITLE=Country - Top Country Hits Volume 2
DYEAR=1900
DGENRE=Country
TTITLE0=Merle Haggard - Ramblin' Fever
TTITLE1=Don Williams - Tulsa Time
TTITLE2=John Conlee - Rose Colored Glasses
TTITLE3=Conway Twitty - Linda on my Mind
TTITLE4=Loretta Lynn and Conway Twitty - Feelins
TTITLE5=Donna Fargo - Don't be Angry
TTITLE6=Oak Ridge Boys - Y'all Come Back Saloon
TTITLE7=Terri Gibbs - Somebody's Knockin
TTITLE8=Tanya Tucker - San Antonio Stroll
TTITLE9=Gene Watson - You're Out Doing What I'm Here Doing Without
TTITLE10=Cal Smith - The Lord Knows I'm Drinking
TTITLE11=Loretta Lynn - When The Tingle Becomes a Chill
TTITLE12=Brenda Lee - Broken Trust
TTITLE13=Ed Bruce - The Last Cowboy Song
TTITLE14=Barbara Mandrell - (if Loving You is Wrong) I Don't Want to be Right
TTITLE15=Lee Greenwood - I.O.U.
EXTD=
EXTT0=
EXTT1=
EXTT2=
EXTT3=
EXTT4=
EXTT5=
EXTT6=
EXTT7=
EXTT8=
EXTT9=
EXTT10=
EXTT11=
EXTT12=
EXTT13=
EXTT14=
EXTT15=
PLAYORDER=
